<svg id="Layer_1" data-name="Layer 1" xmlns="http://www.w3.org/2000/svg" viewBox="0 0 212.1 221.83"><defs><style>.cls-1{fill:#007fd8;}.cls-2{fill:#6e0b0c;}</style></defs><title>icon</title><path class="cls-1" d="M310.53,403.34h0l-8.85,8a76.21,76.21,0,0,0-39.5-1.74l11.44-10.31,4.71-4.26.73-.64,13-11.62,18.32-16.4Z" transform="translate(-152.13 -366.34)"/><path class="cls-2" d="M322.4,526.22a60.61,60.61,0,0,0,10.23-34c0-32-24.18-58-54-58-.86,0-1.71,0-2.56.07-24.58,1.23-44.88,20.12-50.12,45.14a62.41,62.41,0,0,0-1.32,12.79c0,32,24.18,58,54,58A50.74,50.74,0,0,0,304.84,543l17.83,19.84a0,0,0,0,1,0,0,76.63,76.63,0,0,1-44,13.94c-40.6,0-74.12-31.93-79.3-73.31a89.77,89.77,0,0,1-.7-11.19,88.15,88.15,0,0,1,5.3-30.27c9.6-26.45,31.44-46.5,58.2-52.42a76.21,76.21,0,0,1,39.5,1.74c33,10.43,57,42.73,57,80.95a87.1,87.1,0,0,1-18.36,53.86Z" transform="translate(-152.13 -366.34)"/><path class="cls-1" d="M364.23,571.12l-19.22,17-34-37.11-19-20.8a59.07,59.07,0,0,0,18.75-17.56l19.09,20.86Z" transform="translate(-152.13 -366.34)"/><path class="cls-1" d="M198.63,492.26a89.77,89.77,0,0,0,.7,11.19l-10.27,9.25-.09-.1-36.84-4.06,18.38-16.45.19-.17L203.93,462A88.15,88.15,0,0,0,198.63,492.26Z" transform="translate(-152.13 -366.34)"/></svg>